# xmcd
#
# Track frame offsets: 
#        150
#        19544
#        48176
#        75388
#        103183
#        128290
#        161171
#        189427
#        223004
#
# Disc length: 3248 seconds
#
# Revision: 0
# Processed by: cddbd v1.5.2PL0 Copyright (c) Steve Scherf et al.
# Submitted via: ExactAudioCopy v0.95b3
#
DISCID=670cae09
DTITLE=Really Nice Smile - Jeff Watson Band
DYEAR=2006
DGENRE=Blues
TTITLE0=Baby I Love U
TTITLE1=Really Nice Smile
TTITLE2=I'm Yo Man
TTITLE3=That's All Right
TTITLE4=Big Daddy
TTITLE5=Heart Attack
TTITLE6=Jeffrey's Jam
TTITLE7=Watch You Dance
TTITLE8=Goodbye, Farewell, So-Long
EXTD=
EXTT0=
EXTT1=
EXTT2=
EXTT3=
EXTT4=
EXTT5=
EXTT6=
EXTT7=
EXTT8=
PLAYORDER=
